<?xml version="1.0" encoding="utf-8"?>
<!-- Generator: Adobe Illustrator 22.0.1, SVG Export Plug-In . SVG Version: 6.00 Build 0)  -->
<svg version="1.1" id="Layer_1" xmlns="http://www.w3.org/2000/svg" xmlns:xlink="http://www.w3.org/1999/xlink" x="0px" y="0px"
	 viewBox="100 100 800 400" style="enable-background:new 0 0 1000 600;" xml:space="preserve">
<style type="text/css">
	.st0{fill:#4664A9;}
</style>
<g>
	<g>
		<g>
			<g>
				<polygon class="st0" points="227.4,361.7 224.9,362.8 222.4,361.7 156.9,332.9 109,349.1 224.9,400.1 340.7,349.1 292.9,332.9
									"/>
			</g>
			<g>
				<polygon class="st0" points="227.4,315 224.9,316.1 222.4,315 156.9,286.2 109,302.3 224.9,353.3 340.7,302.3 292.9,286.2
					"/>
			</g>
			<g>
				<polygon class="st0" points="221.3,96 108.8,256.7 221.3,306.2 				"/>
			</g>
		</g>
		<g>
			<path class="st0" d="M400.5,229.5v-47H436v9.2h-25.2v9.5H433v9.2h-22.2v9.9h25.5v9.2H400.5z"/>
			<path class="st0" d="M485.2,229.5l-22.8-29.9v29.9h-10.2v-47h9.5l22,29v-29H494v47H485.2z"/>
			<path class="st0" d="M533.4,192v37.5H523V192h-14.3v-9.5h39v9.5H533.4z"/>
			<path class="st0" d="M562.3,229.5v-47h35.5v9.2h-25.2v9.5h22.2v9.2h-22.2v9.9h25.5v9.2H562.3z"/>
			<path class="st0" d="M642.6,229.5l-10.1-15.1h-8.1v15.1h-10.3v-47h21.5c11.1,0,17.7,5.8,17.7,15.5v0.1c0,7.6-4.1,12.4-10.1,14.6
				l11.5,16.8H642.6z M642.8,198.5c0-4.4-3.1-6.7-8.1-6.7h-10.3v13.5h10.5c5,0,7.9-2.7,7.9-6.7V198.5z"/>
			<path class="st0" d="M687.6,215.4h-7.9v14.1h-10.3v-47h19.2c11.2,0,18,6.7,18,16.3v0.1C706.6,209.7,698.2,215.4,687.6,215.4z
				 M696.1,198.9c0-4.6-3.2-7.1-8.4-7.1h-8v14.4h8.2c5.2,0,8.2-3.1,8.2-7.1V198.9z"/>
			<path class="st0" d="M749.6,229.5l-10.1-15.1h-8.1v15.1H721v-47h21.5c11.1,0,17.7,5.8,17.7,15.5v0.1c0,7.6-4.1,12.4-10.1,14.6
				l11.5,16.8H749.6z M749.8,198.5c0-4.4-3.1-6.7-8.1-6.7h-10.3v13.5h10.5c5,0,7.9-2.7,7.9-6.7V198.5z"/>
			<path class="st0" d="M776.8,229.5v-47h10.3v47H776.8z"/>
			<path class="st0" d="M822.4,230.2c-7.1,0-14.3-2.5-20-7.5l6.1-7.3c4.2,3.5,8.7,5.7,14,5.7c4.2,0,6.8-1.7,6.8-4.4v-0.1
				c0-2.6-1.6-4-9.5-6c-9.5-2.4-15.6-5-15.6-14.4V196c0-8.5,6.9-14.2,16.5-14.2c6.9,0,12.7,2.2,17.5,6l-5.4,7.8
				c-4.2-2.9-8.3-4.6-12.2-4.6s-6,1.8-6,4.1v0.1c0,3.1,2,4.1,10.1,6.2c9.5,2.5,14.9,5.9,14.9,14.1v0.1
				C839.6,224.9,832.5,230.2,822.4,230.2z"/>
			<path class="st0" d="M855.4,229.5v-47h35.5v9.2h-25.2v9.5h22.2v9.2h-22.2v9.9h25.5v9.2H855.4z"/>
			<path class="st0" d="M400.5,322.5v-47H436v9.2h-25.2v9.5H433v9.2h-22.2v9.9h25.5v9.2H400.5z"/>
			<path class="st0" d="M473.6,285v37.5h-10.3V285h-14.3v-9.5h39v9.5H473.6z"/>
			<path class="st0" d="M532,322.5v-18.9h-19.1v18.9h-10.3v-47h10.3v18.6H532v-18.6h10.3v47H532z"/>
			<path class="st0" d="M560.3,322.5v-47h35.5v9.2h-25.2v9.5h22.2v9.2h-22.2v9.9h25.5v9.2H560.3z"/>
			<path class="st0" d="M640.6,322.5l-10.1-15.1h-8.1v15.1h-10.3v-47h21.5c11.1,0,17.7,5.8,17.7,15.5v0.1c0,7.6-4.1,12.4-10.1,14.6
				l11.5,16.8H640.6z M640.8,291.5c0-4.4-3.1-6.7-8.1-6.7h-10.3v13.5h10.5c5,0,7.9-2.7,7.9-6.7V291.5z"/>
			<path class="st0" d="M667.4,322.5v-47h35.5v9.2h-25.2v9.5h22.2v9.2h-22.2v9.9h25.5v9.2H667.4z"/>
			<path class="st0" d="M738.8,323.2c-12.6,0-20.4-7.1-20.4-20.9v-26.9h10.3v26.6c0,7.7,3.8,11.6,10.1,11.6
				c6.3,0,10.1-3.8,10.1-11.3v-26.9h10.3V302C759.4,316.2,751.4,323.2,738.8,323.2z"/>
			<path class="st0" d="M813.4,322.5v-30.7l-13.2,20.1h-0.3L786.8,292v30.5h-10.1v-47h11.2l12.4,19.9l12.4-19.9h11.2v47H813.4z"/>
			<path class="st0" d="M435.5,415.5l-4.3-10.6h-19.9l-4.3,10.6h-10.6l20.2-47.4h9.5l20.2,47.4H435.5z M421.3,380.5l-6.3,15.3h12.5
				L421.3,380.5z"/>
			<path class="st0" d="M460.3,415.5v-47h10.3v37.6h23.5v9.4H460.3z"/>
			<path class="st0" d="M508.6,415.5v-47H519v37.6h23.5v9.4H508.6z"/>
			<path class="st0" d="M557.4,415.5v-47h10.3v47H557.4z"/>
			<path class="st0" d="M621.3,415.5l-4.3-10.6h-19.9l-4.3,10.6h-10.6l20.2-47.4h9.5l20.2,47.4H621.3z M607,380.5l-6.3,15.3h12.5
				L607,380.5z"/>
			<path class="st0" d="M679.1,415.5l-22.8-29.9v29.9h-10.2v-47h9.5l22,29v-29h10.2v47H679.1z"/>
			<path class="st0" d="M727.9,416.3c-13.8,0-24.1-10.7-24.1-24.2V392c0-13.4,10.1-24.3,24.5-24.3c8.9,0,14.2,3,18.5,7.3l-6.6,7.6
				c-3.6-3.3-7.3-5.3-12-5.3c-7.9,0-13.6,6.6-13.6,14.6v0.1c0,8.1,5.6,14.8,13.6,14.8c5.4,0,8.7-2.1,12.4-5.5l6.6,6.7
				C742.4,413.1,737,416.3,727.9,416.3z"/>
			<path class="st0" d="M762.2,415.5v-47h35.5v9.2h-25.2v9.5h22.2v9.2h-22.2v9.9H798v9.2H762.2z"/>
		</g>
	</g>
	<polygon class="st0" points="228.2,407.4 228.2,495.4 339.4,357.8 	"/>
	<polygon class="st0" points="220.8,407.5 109.5,357.8 220.8,495.6 	"/>
	<polygon class="st0" points="228.2,96.4 228.2,306.1 340.5,256.7 	"/>
</g>
</svg>
